<svg width="120" height="120" viewBox="0 0 120 120" fill="none" xmlns="http://www.w3.org/2000/svg">
<rect width="120" height="120" rx="30" fill="white" fill-opacity="0.2"/>
<path d="M83.6096 79.4106C86.8945 75.4616 89.1792 70.7801 90.2704 65.7623C91.3615 60.7444 91.2271 55.5378 89.8785 50.5828C88.5298 45.6279 86.0066 41.0704 82.5223 37.2958C79.038 33.5213 74.6951 30.6408 69.8609 28.8979C65.0268 27.1551 59.8437 26.6013 54.75 27.2833C49.6564 27.9652 44.802 29.863 40.5976 32.8159C36.3933 35.7689 32.9625 39.6902 30.5957 44.2482C28.2288 48.8061 26.9955 53.8666 27 59.0015C27.0019 66.4662 29.6346 73.6918 34.4362 79.4106L34.3904 79.4495C34.5505 79.6414 34.7335 79.806 34.8982 79.9957C35.1041 80.2311 35.326 80.4528 35.5387 80.6813C36.1761 81.3776 36.8394 82.0404 37.5287 82.6697C37.7422 82.8586 37.9556 83.0429 38.1691 83.2227C38.9011 83.855 39.6559 84.4508 40.4336 85.01C40.5343 85.0785 40.6257 85.1677 40.7264 85.2385V85.2111C46.0835 88.9782 52.4744 91 59.0252 91C65.576 91 71.9669 88.9782 77.324 85.2111V85.2385C77.4246 85.1677 77.5138 85.0785 77.6167 85.01C78.3944 84.4493 79.1493 83.8535 79.8812 83.2227C80.0947 83.0414 80.3082 82.8571 80.5217 82.6697C81.2094 82.0404 81.8727 81.3776 82.5117 80.6813C82.7244 80.4528 82.944 80.2311 83.1521 79.9957C83.3145 79.806 83.4998 79.6414 83.6599 79.4472L83.6096 79.4106ZM59.0229 40.7179C61.0587 40.7179 63.0487 41.3211 64.7414 42.4511C66.4341 43.5812 67.7534 45.1874 68.5324 47.0667C69.3115 48.9459 69.5153 51.0138 69.1182 53.0088C68.721 55.0038 67.7407 56.8364 66.3012 58.2747C64.8617 59.713 63.0276 60.6925 61.031 61.0893C59.0343 61.4862 56.9647 61.2825 55.0839 60.5041C53.2031 59.7257 51.5955 58.4075 50.4645 56.7162C49.3335 55.0249 48.7298 53.0365 48.7298 51.0024C48.7298 48.2748 49.8143 45.6589 51.7446 43.7301C53.6749 41.8014 56.293 40.7179 59.0229 40.7179ZM40.7401 79.4106C40.7798 76.4097 42.0003 73.5451 44.1376 71.4365C46.275 69.3279 49.1572 68.1449 52.1608 68.1433H65.8849C68.8886 68.1449 71.7708 69.3279 73.9081 71.4365C76.0455 73.5451 77.266 76.4097 77.3057 79.4106C72.2891 83.9274 65.7757 86.4271 59.0229 86.4271C52.27 86.4271 45.7566 83.9274 40.7401 79.4106Z" fill="url(#paint0_linear_3497_177)"/>
<circle cx="78.5" cy="78.5" r="13.5" fill="#1B0337"/>
<path d="M75 80.2706L76.9895 81.8683C77.1165 81.9702 77.2754 82.0157 77.433 81.9952C77.5905 81.9747 77.7346 81.8898 77.8351 81.7583L83 75" stroke="#00F7F8" stroke-width="1.5" stroke-linecap="round"/>
<defs>
<linearGradient id="paint0_linear_3497_177" x1="34.398" y1="27" x2="73.7285" y2="100.271" gradientUnits="userSpaceOnUse">
<stop stop-color="#A931A6"/>
<stop offset="0.475" stop-color="#E94057"/>
<stop offset="1" stop-color="#F9CB28"/>
</linearGradient>
</defs>
</svg>
